<svg id="Layer_1" data-name="Layer 1" xmlns="http://www.w3.org/2000/svg" viewBox="0 0 14 14">
  <g>
    <path d="M2.15723,4.66272h9.63965a1.62574,1.62574,0,0,0,1.62561-1.62561V2.41992A1.6257,1.6257,0,0,0,11.79688.79431H2.15723A1.62556,1.62556,0,0,0,.5321,2.41992v.61719A1.62564,1.62564,0,0,0,2.15723,4.66272Zm-.913-2.2428a.91469.91469,0,0,1,.913-.91345h9.63965a.91475.91475,0,0,1,.91345.91345v.61719a.91475.91475,0,0,1-.91345.91345H2.15723a.91472.91472,0,0,1-.913-.91345Z"/>
    <rect x="8.50488" y="2.39746" width="2.72754" height="0.66211" rx="0.31543"/>
    <path d="M7.4751,3.05957a.33127.33127,0,1,0-.31934-.331A.32515.32515,0,0,0,7.4751,3.05957Z"/>
    <path d="M11.82031,4.95154H2.18018A1.62528,1.62528,0,0,0,.55505,6.57715v.61719A1.62452,1.62452,0,0,0,2.18018,8.819h9.64013A1.62469,1.62469,0,0,0,13.445,7.19434V6.57715A1.62549,1.62549,0,0,0,11.82031,4.95154Zm.91248,2.2428a.9137.9137,0,0,1-.91248.91247H2.18018a.91322.91322,0,0,1-.913-.91247V6.57715a.91421.91421,0,0,1,.913-.91345h9.64013a.91465.91465,0,0,1,.91248.91345Z"/>
    <rect x="8.52734" y="6.55469" width="2.72754" height="0.66211" rx="0.31543"/>
    <ellipse cx="7.49756" cy="6.88574" rx="0.31934" ry="0.33105"/>
    <path d="M11.79688,9.10876H2.15723A1.62481,1.62481,0,0,0,.5321,10.7334v.61719A1.62564,1.62564,0,0,0,2.15723,12.9762h9.63965a1.62574,1.62574,0,0,0,1.62561-1.62561V10.7334A1.62492,1.62492,0,0,0,11.79688,9.10876Zm.91345,2.24183a.91475.91475,0,0,1-.91345.91345H2.15723a.91473.91473,0,0,1-.913-.91345V10.7334a.91371.91371,0,0,1,.913-.91248h9.63965a.91372.91372,0,0,1,.91345.91248Z"/>
    <rect x="8.50488" y="10.71094" width="2.72754" height="0.66211" rx="0.31543"/>
    <path d="M7.4751,10.71094a.33129.33129,0,1,0,.31885.331A.32524.32524,0,0,0,7.4751,10.71094Z"/>
  </g>
</svg>
