<svg id="Layer_1" data-name="Layer 1" xmlns="http://www.w3.org/2000/svg" viewBox="0 0 14 14">
  <g>
    <path d="M8.3642,10.26172H3.49311v-6.667H8.3642A.60061.60061,0,0,0,8.81525,3.387a.66762.66762,0,0,0,.16321-.44067V1.41846a.66743.66743,0,0,0-.163-.44031A.60054.60054,0,0,0,8.3642.77H1.54291a.82846.82846,0,0,0-.62219.28833.96212.96212,0,0,0-.23425.6355V12.17041a.96225.96225,0,0,0,.23425.6355.82846.82846,0,0,0,.62219.28833H8.3642a.60057.60057,0,0,0,.45105-.20777.66762.66762,0,0,0,.16321-.44067V10.91016a.66743.66743,0,0,0-.163-.44031A.60051.60051,0,0,0,8.3642,10.26172ZM1.48444,12.31116l-.048-.14075V1.69385l.048-.14075L1.54291,1.52H8.22846V2.84473H3.38959a.63091.63091,0,0,0-.47424.21862.7062.7062,0,0,0-.17224.466v6.79834a.70529.70529,0,0,0,.17249.466.63144.63144,0,0,0,.474.21808H8.22846v1.33252H1.54291Z"/>
    <path d="M13.54731,6.564l-.00037-.00037-3.4834-3.05322.00123.00116a.58858.58858,0,0,0-.39014-.14868.5966.5966,0,0,0-.408.16186.58976.58976,0,0,0-.18561.43079V5.29883H4.76752a.714.714,0,0,0-.71386.71338V7.9873a.7141.7141,0,0,0,.71386.71387H9.081v1.34326a.59.59,0,0,0,.18561.43079.59683.59683,0,0,0,.408.1618.58859.58859,0,0,0,.39-.14849l3.4823-3.05225.00122-.0011a.58083.58083,0,0,0-.00085-.87115ZM9.831,9.696V7.95117H4.80366V6.04883H9.831V4.304l3.07587,2.696Z"/>
  </g>
</svg>
