<svg id="Layer_1" data-name="Layer 1" xmlns="http://www.w3.org/2000/svg" viewBox="0 0 14 14">
  <path d="M12.68311,1.97845,12.683,1.97809A1.57818,1.57818,0,0,0,11.1709.84229H2.81738a1.57708,1.57708,0,0,0-1.51165,1.1361l-.00043.00135L.44684,4.94641.466,5.03784a2.01082,2.01082,0,0,0,.8216,1.24378V11.398a1.79356,1.79356,0,0,0,1.79345,1.79346h7.92383a1.79344,1.79344,0,0,0,1.794-1.79346V6.21912a2.01369,2.01369,0,0,0,.73523-1.18146l.01922-.092ZM2.02545,2.18939a.82687.82687,0,0,1,.79193-.5971H11.1709a.82784.82784,0,0,1,.79254.59753l.81024,2.76263a1.16933,1.16933,0,0,1-2.29834-.06878l-.06268-.29773H9.76758l-.06238.29822A1.17469,1.17469,0,0,1,7.385,4.88367l-.06268-.29773H6.67767L6.615,4.88367a1.175,1.175,0,0,1-2.3208,0l-.06268-.29773H3.58679l-.06262.29773a1.19867,1.19867,0,0,1-1.1604.99035,1.18843,1.18843,0,0,1-1.1377-.92236ZM6.97852,12.40771V9.36035A.43713.43713,0,0,1,7.415,8.92383H8.998a.43715.43715,0,0,1,.43652.43652v3.04736ZM12.04883,11.398a1.04446,1.04446,0,0,1-1.044,1.04346h-.82031V9.36035A1.18655,1.18655,0,0,0,8.998,8.17383H7.415A1.18655,1.18655,0,0,0,6.22852,9.36035v3.08106H3.08105A1.04485,1.04485,0,0,1,2.0376,11.398V6.59424a1.87129,1.87129,0,0,0,1.87158-.777A1.88356,1.88356,0,0,0,7,5.81726a1.8836,1.8836,0,0,0,3.0907.00024,1.85683,1.85683,0,0,0,1.95813.75684Z"/>
</svg>
