<svg id="Layer_1" data-name="Layer 1" xmlns="http://www.w3.org/2000/svg" viewBox="0 0 14 14">
  <circle cx="2.66309" cy="3.11475" r="0.31934"/>
  <circle cx="3.63184" cy="3.10059" r="0.31934"/>
  <path d="M11.4873.76074H2.749A2.00609,2.00609,0,0,0,.74316,2.7666V9.855A2.006,2.006,0,0,0,2.749,11.86035H5.32715v.51123a.6851.6851,0,0,0,.27734.54077.89351.89351,0,0,0,.54492.17847h1.9375a.89351.89351,0,0,0,.54493-.17847.68515.68515,0,0,0,.27734-.54077v-.51123H11.4873A2.00542,2.00542,0,0,0,13.49316,9.855V2.7666A2.00548,2.00548,0,0,0,11.4873.76074Zm-8.73828.75H11.4873A1.2569,1.2569,0,0,1,12.74316,2.7666V4.08154h-11.25V2.7666A1.25778,1.25778,0,0,1,2.749,1.51074ZM8.15918,9.47949v2.84162l-.07227.01971H6.14941l-.07226-.01892V9.47949H4.08887l1.36822-1.504,1.59369-1.7514.01337-.00659.0545-.00922.05451.00922.01336.00659L8.78027,7.97552l1.36817,1.504Zm3.32812,1.63086H8.90918v-.88086h1.39746a.89339.89339,0,0,0,.49353-.13934.59214.59214,0,0,0,.28015-.48877.564.564,0,0,0-.15124-.3783l-.00031-.00036L9.335,7.47076,7.74121,5.7193a.87288.87288,0,0,0-1.24512,0L4.90234,7.47076l-1.59381,1.752-.00024.0003a.56437.56437,0,0,0-.15137.37836.59228.59228,0,0,0,.28015.48877.89378.89378,0,0,0,.49359.13934H5.32715v.88086H2.749A1.25779,1.25779,0,0,1,1.49316,9.855V4.83154h11.25V9.855A1.25687,1.25687,0,0,1,11.4873,11.11035Z"/>
</svg>
