<svg id="Layer_1" data-name="Layer 1" xmlns="http://www.w3.org/2000/svg" viewBox="0 0 14 14">
  <g>
    <path d="M6.95942,4.11127A2.81891,2.81891,0,1,0,9.77784,6.93018,2.81883,2.81883,0,0,0,6.95942,4.11127Zm0,4.91308A2.09418,2.09418,0,1,1,9.05311,6.93018,2.09677,2.09677,0,0,1,6.95942,9.02435Z"/>
    <path d="M13.11635,6.19476l-.15528-.2127-.06824-.09339L11.6927,5.48816a4.95232,4.95232,0,0,0-.3678-.88532l.57154-1.13775-.04224-.26044-.01886-.11615L10.795,2.0556l-.25885-.04138-.115-.01837-1.13672.56781a4.90044,4.90044,0,0,0-.88483-.36749L8.00093.99152,7.78663.837,7.69105.768,6.22578.7738,6.0135.92645l-.095.06836L5.51692,2.19659a4.95473,4.95473,0,0,0-.88117.36646L3.50227,1.99292l-.25983.04126-.11627.01849L2.08638,3.093l-.04224.2594-.01874.11529.56726,1.13843a4.899,4.899,0,0,0-.36535.87817L1.02,5.88385l-.15362.21368-.06818.09479V7.6626l.15314.213.0683.095,1.20745.40344a4.89143,4.89143,0,0,0,.36542.879L2.023,10.38678l.04028.25916.01819.117,1.04132,1.04022.25873.04224.11542.01886,1.13824-.56769a4.90878,4.90878,0,0,0,.87824.36542L5.91279,12.868l.21241.15448.09527.06934H7.69111l.21387-.15338.09534-.06836.40356-1.20783a4.89322,4.89322,0,0,0,.88233-.36694l1.13781.57184.26038-.04224.11615-.0188,1.03387-1.04083.04065-.25958.01789-.11438-.56726-1.136a4.94319,4.94319,0,0,0,.36786-.88574l1.204-.39844.15461-.21429.06884-.09546ZM10.4908,11.0896,9.422,10.55249l-.205.00616-.09021.00275-.07837.04468a4.17993,4.17993,0,0,1-.96441.40143l-.08667.02386-.14752.13873-.06653.06257-.37909,1.13446H6.51033l-.37525-1.13306-.14825-.14032-.06561-.06213-.08716-.02405a4.18643,4.18643,0,0,1-.96106-.40021l-.07831-.04449-.20325-.00617L4.50032,10.554,3.43141,11.087l-.632-.63129L3.33479,9.39l-.00531-.2041L3.3271,9.095l-.045-.0791a4.17071,4.17071,0,0,1-.4-.96106l-.02368-.08618-.13818-.14783-.06275-.06708L1.523,7.37469V6.48077l1.1341-.37524.14032-.15009.061-.06518L2.882,5.80414a4.18951,4.18951,0,0,1,.40015-.96094l.04492-.079.00531-.20355.00232-.09021L2.80232,3.40192,3.434,2.76984l1.06562.536.20507-.00617.09-.00268.07825-.0445a4.23344,4.23344,0,0,1,.96447-.40136l.08625-.02387.14728-.13849.06652-.06256.3772-1.12878.88916-.00354.374,1.13037.14832.14038.0658.06225.08746.024a4.18108,4.18108,0,0,1,.96716.40192l.07837.04468.20343.0061.09119.00275,1.06878-.53394.63056.626-.53754,1.06994.00714.20533.00306.089.04406.07751a4.23144,4.23144,0,0,1,.40222.96759l.02369.08588.13806.1477.06274.06714,1.13019.3772.00281.88824-1.13166.37451-.14025.15-.06092.06518-.02374.086a4.225,4.225,0,0,1-.40216.968l-.04407.07745-.007.20185-.00323.092.53448,1.07031Z"/>
  </g>
</svg>
