<svg id="Layer_1" data-name="Layer 1" xmlns="http://www.w3.org/2000/svg" viewBox="0 0 14 14">
  <path d="M12.57324,4.51025V2.90283A2.0707,2.0707,0,0,0,10.50293.83252H2.30859A2.0707,2.0707,0,0,0,.23828,2.90283v8.19434A2.07036,2.07036,0,0,0,2.30859,13.167h8.19434a2.07035,2.07035,0,0,0,2.07031-2.06982V9.48969A1.35247,1.35247,0,0,0,13.84668,8.1416V5.8584A1.35243,1.35243,0,0,0,12.57324,4.51025Zm-.75,6.58692A1.3222,1.3222,0,0,1,10.50293,12.417H2.30859A1.3222,1.3222,0,0,1,.98828,11.09717V2.90283A1.32262,1.32262,0,0,1,2.30859,1.58252h8.19434a1.32262,1.32262,0,0,1,1.32031,1.32031V4.502H9.78271A1.35619,1.35619,0,0,0,8.42676,5.8584V8.1416A1.35627,1.35627,0,0,0,9.78271,9.498h2.04053ZM13.09668,8.1416a.607.607,0,0,1-.606.60645h-2.708a.607.607,0,0,1-.60595-.60645V5.8584a.607.607,0,0,1,.606-.60645h2.708a.607.607,0,0,1,.606.60645Z"/>
</svg>
