<svg width="22" height="21" viewBox="0 0 22 21" fill="none" xmlns="http://www.w3.org/2000/svg">
<path d="M14.1035 6.46973C14.5177 6.46973 14.8535 6.13394 14.8535 5.71973C14.8535 5.30551 14.5177 4.96973 14.1035 4.96973L14.1035 6.46973ZM5.10352 5.71973L5.10352 4.96973L4.35352 4.96973L4.35352 5.71973L5.10352 5.71973ZM5.10352 15.7197L4.35352 15.7197L4.35352 16.4697L5.10352 16.4697L5.10352 15.7197ZM14.1035 16.4697C14.5177 16.4697 14.8535 16.1339 14.8535 15.7197C14.8535 15.3055 14.5177 14.9697 14.1035 14.9697L14.1035 16.4697ZM14.1035 4.96973L5.10352 4.96973L5.10352 6.46973L14.1035 6.46973L14.1035 4.96973ZM4.35352 5.71973L4.35352 15.7197L5.85352 15.7197L5.85352 5.71973L4.35352 5.71973ZM5.10352 16.4697L14.1035 16.4697L14.1035 14.9697L5.10352 14.9697L5.10352 16.4697Z" fill="#A8A8A8"/>
<path fill-rule="evenodd" clip-rule="evenodd" d="M20.1678 11.0001L20.5841 10.5425L20.1783 10.0438L18.0974 7.48683C17.8314 7.16002 17.3543 7.09618 17.0317 7.34425C16.7091 7.59231 16.6632 8.05834 16.9292 8.38515L18.032 9.74025L10.5017 9.6537C10.0831 9.64889 9.74622 9.97709 9.74937 10.3868C9.75252 10.7964 10.0945 11.1324 10.5131 11.1372L17.8958 11.2221L16.8388 12.3836C16.5659 12.6835 16.6016 13.1536 16.9183 13.4337C17.2351 13.7137 17.7131 13.6977 17.9859 13.3978L20.1678 11.0001Z" fill="#A8A8A8"/>
</svg>
