<svg width="20" height="19" viewBox="0 0 20 19" xmlns="http://www.w3.org/2000/svg">
<path d="M11.7709 8.14956C11.6288 8.12143 11.4814 8.13978 11.3505 8.2019C11.2196 8.26402 11.1121 8.3666 11.044 8.49449C10.9759 8.62239 10.9508 8.76879 10.9723 8.91207C10.9939 9.05535 11.061 9.18789 11.1636 9.29011C11.2663 9.39233 11.3992 9.45879 11.5426 9.47967C11.6859 9.50056 11.8322 9.47475 11.9598 9.40607C12.0874 9.3374 12.1895 9.22949 12.251 9.09831C12.3125 8.96713 12.3302 8.81963 12.3014 8.67763C12.2748 8.54716 12.2102 8.42745 12.1159 8.3335C12.0215 8.23956 11.9015 8.17557 11.7709 8.14956Z" />
<path d="M11.7712 7.17979C11.417 7.15077 11.063 7.23768 10.7625 7.42743C10.462 7.61718 10.2314 7.89948 10.1054 8.23175C10.0616 8.34812 9.98729 8.45059 9.89034 8.52847C9.79339 8.60635 9.67732 8.65677 9.55423 8.67449C9.43114 8.6922 9.30555 8.67655 9.19058 8.62917C9.0756 8.58179 8.97545 8.50441 8.90058 8.40513C8.84079 8.32598 8.76427 8.261 8.67648 8.21482C8.58869 8.16865 8.49179 8.14242 8.39269 8.138C8.30287 8.13518 8.21338 8.15009 8.12932 8.18187C8.04526 8.21365 7.9683 8.26169 7.90281 8.32323C7.83733 8.38478 7.78462 8.45862 7.74769 8.54055C7.71076 8.62247 7.69034 8.71087 7.68759 8.8007C7.68521 8.94443 7.7288 9.08517 7.81201 9.20239C7.89522 9.31962 8.01369 9.4072 8.15017 9.45237C8.28664 9.49754 8.43397 9.49793 8.57069 9.4535C8.7074 9.40907 8.82635 9.32213 8.91019 9.20535C9.22314 8.77041 9.92204 8.91277 10.1075 9.39695C10.2121 9.67039 10.3881 9.91079 10.6171 10.0931C10.8461 10.2755 11.1199 10.3931 11.4098 10.4337C11.6997 10.4743 11.9952 10.4365 12.2656 10.3241C12.5359 10.2117 12.7712 10.0289 12.9469 9.79478C13.1226 9.56062 13.2323 9.28363 13.2646 8.99266C13.297 8.70169 13.2507 8.40738 13.1306 8.14037C13.0106 7.87335 12.8211 7.64341 12.582 7.47447C12.343 7.30553 12.0629 7.20377 11.7712 7.17979ZM11.8181 9.86562C11.5945 9.90404 11.3644 9.87028 11.1612 9.76924C10.958 9.6682 10.7922 9.50511 10.6878 9.30358C10.5835 9.10205 10.5459 8.87255 10.5807 8.64828C10.6154 8.42401 10.7207 8.21662 10.8811 8.05613C11.0416 7.89564 11.2489 7.79038 11.4732 7.75557C11.6975 7.72077 11.927 7.75824 12.1285 7.86255C12.3301 7.96686 12.4932 8.1326 12.5943 8.33579C12.6954 8.53898 12.7292 8.76906 12.6908 8.99274C12.6533 9.21056 12.5493 9.41142 12.3931 9.56773C12.2368 9.72403 12.0359 9.8281 11.8181 9.86562H11.8181Z" />
<path d="M9.52583 9.34915C9.46826 9.3327 9.40698 9.33474 9.35063 9.35498C9.29428 9.37521 9.24571 9.41262 9.21175 9.46194C9.07567 9.63884 8.88758 9.76866 8.67391 9.83314C8.46024 9.89762 8.23173 9.89352 8.02051 9.82142C7.80929 9.74932 7.62597 9.61284 7.49633 9.43117C7.36668 9.24949 7.29723 9.03176 7.29772 8.80858C7.29822 8.58539 7.36865 8.36797 7.4991 8.18687C7.62955 8.00578 7.81348 7.87012 8.02502 7.79896C8.23656 7.7278 8.46508 7.72472 8.67846 7.79015C8.89184 7.85558 9.07936 7.98624 9.21464 8.16375C9.21766 8.16794 9.2208 8.17207 9.22401 8.17608H9.22403L9.22568 8.17814C9.27143 8.23418 9.33688 8.27059 9.40862 8.27992C9.48036 8.28925 9.55295 8.27078 9.6115 8.2283C9.67006 8.18583 9.71015 8.12256 9.72356 8.05147C9.73697 7.98038 9.72267 7.90686 9.68361 7.84597C9.68138 7.84046 9.67845 7.83526 9.67488 7.83051C9.46922 7.55576 9.18244 7.35258 8.85504 7.24967C8.52764 7.14676 8.17619 7.14932 7.85032 7.25698C7.52446 7.36464 7.24066 7.57197 7.03901 7.84968C6.83737 8.12738 6.72808 8.46142 6.72658 8.80461C6.72508 9.1478 6.83144 9.48278 7.03065 9.76224C7.22986 10.0417 7.51184 10.2515 7.83675 10.362C8.16166 10.4725 8.51308 10.4781 8.84136 10.3781C9.16965 10.2781 9.4582 10.0774 9.66625 9.80446C9.69578 9.76857 9.71614 9.72605 9.72558 9.68055C9.73502 9.63506 9.73326 9.58794 9.72045 9.54328C9.7074 9.49693 9.68265 9.45473 9.64856 9.42073C9.61447 9.38672 9.57221 9.36207 9.52583 9.34915Z" />
<path d="M10.0018 0.431641C8.20826 0.43164 6.45502 0.96348 4.96377 1.9599C3.47251 2.95633 2.31022 4.37258 1.62387 6.02958C0.937523 7.68657 0.757943 9.50988 1.10784 11.2689C1.45774 13.028 2.3214 14.6438 3.58961 15.912C4.85781 17.1802 6.47361 18.0439 8.23266 18.3938C9.99172 18.7437 11.815 18.5641 13.472 17.8777C15.129 17.1914 16.5453 16.0291 17.5417 14.5378C18.5381 13.0466 19.07 11.2933 19.07 9.49982C19.07 8.30897 18.8354 7.12978 18.3797 6.02958C17.924 4.92937 17.256 3.92971 16.414 3.08765C15.5719 2.24559 14.5722 1.57763 13.472 1.12191C12.3718 0.666196 11.1926 0.43164 10.0018 0.431641V0.431641ZM10.0018 14.3237C9.04771 14.3237 8.11507 14.0408 7.32179 13.5107C6.52851 12.9807 5.91022 12.2273 5.54512 11.3458C5.18001 10.4644 5.08448 9.49446 5.27061 8.55873C5.45674 7.62299 5.91617 6.76346 6.5908 6.08883C7.26543 5.4142 8.12496 4.95478 9.06069 4.76865C9.99643 4.58252 10.9663 4.67805 11.8478 5.04316C12.7292 5.40826 13.4826 6.02655 14.0127 6.81983C14.5427 7.61311 14.8256 8.54575 14.8256 9.49982C14.8256 10.1333 14.7009 10.7606 14.4584 11.3458C14.216 11.9311 13.8607 12.4629 13.4128 12.9108C12.9648 13.3587 12.433 13.7141 11.8478 13.9565C11.2625 14.1989 10.6353 14.3237 10.0018 14.3237V14.3237Z" />
<path d="M11.2671 10.8123C11.2229 10.809 11.1787 10.8162 11.1379 10.8335C11.0972 10.8507 11.0611 10.8774 11.0328 10.9113C10.9059 11.0657 10.7239 11.5005 10.0339 11.5405C10.0226 11.5412 10.0112 11.5408 9.99986 11.5412C9.98849 11.5408 9.97715 11.5412 9.96578 11.5405C9.2758 11.5005 9.09382 11.0657 8.96697 10.9113C8.93861 10.8774 8.90256 10.8507 8.86181 10.8335C8.82106 10.8162 8.77679 10.809 8.73267 10.8123C8.66302 10.8134 8.59654 10.8416 8.54728 10.8908C8.49803 10.9401 8.46986 11.0066 8.46875 11.0762C8.46875 11.23 8.56282 11.3595 8.73677 11.5506C8.89698 11.7262 9.09205 11.8665 9.30954 11.9625C9.52702 12.0585 9.76214 12.1081 9.99986 12.1081C10.2376 12.1081 10.4727 12.0585 10.6902 11.9625C10.9077 11.8665 11.1027 11.7262 11.263 11.5506C11.4369 11.3595 11.531 11.23 11.531 11.0762C11.5299 11.0066 11.5017 10.9401 11.4524 10.8908C11.4032 10.8416 11.3367 10.8134 11.2671 10.8123Z"/>
</svg>
