<svg width="19" height="19" viewBox="0 0 19 19" fill="none" xmlns="http://www.w3.org/2000/svg">
<g clip-path="url(#clip0_1731_8884)">
<path d="M16.9849 17.3665V16.5935H7.50327L7.46401 16.5552V7.07308L7.50327 7.03433H16.9849L17.0242 7.07308V16.5552L16.9849 16.5935V18.1395C17.4052 18.1395 17.8082 17.9726 18.1055 17.6755C18.4028 17.3784 18.5699 16.9755 18.5702 16.5552V7.07308C18.57 6.65274 18.4029 6.24968 18.1056 5.9525C17.8084 5.65533 17.4053 5.48835 16.9849 5.48828H7.50327C7.08289 5.48824 6.67972 5.65518 6.38242 5.95238C6.08513 6.24958 5.91806 6.65271 5.91797 7.07308V16.5552C5.91815 16.9755 6.08527 17.3785 6.38256 17.6756C6.67985 17.9728 7.08297 18.1396 7.50327 18.1395H16.9849V17.3665Z" fill="#48AFE8"/>
<path d="M4.68823 11.1057H2.08531L2.046 11.0665V1.5848L2.08527 1.54605H11.567L11.6053 1.5848V4.18622H13.1512V1.5848C13.1512 1.16458 12.9843 0.76157 12.6873 0.46438C12.3902 0.16719 11.9872 0.000153795 11.567 8.09055e-09H2.08531C1.66493 -4.24335e-05 1.26176 0.166897 0.96446 0.464099C0.667162 0.761302 0.500093 1.16443 0.5 1.5848L0.5 11.0665C0.5 11.2746 0.541005 11.4808 0.620675 11.6731C0.700344 11.8655 0.817117 12.0402 0.964327 12.1874C1.11154 12.3346 1.2863 12.4514 1.47864 12.5311C1.67098 12.6107 1.87712 12.6518 2.08531 12.6517H4.68823V11.1058V11.1057Z" fill="#48AFE8"/>
</g>
<defs>
<clipPath id="clip0_1731_8884">
<rect width="18.0695" height="18.1394" fill="white" transform="translate(0.5)"/>
</clipPath>
</defs>
</svg>
