<svg id="Layer_1" data-name="Layer 1" xmlns="http://www.w3.org/2000/svg" viewBox="0 0 12.00098 12">
  <defs>
    <style>
      .cls-1 {
        <!-- fill: #3a3a3a; -->
      }
    </style>
  </defs>
  <g>
    <path class="cls-1" d="M1,1H7.3418V2.18164h1V1a.99974.99974,0,0,0-1-1H1A1,1,0,0,0,0,1V7.3418a.99974.99974,0,0,0,1,1H2.18164v-1H1Z"/>
    <path class="cls-1" d="M11.001,3.27246H4.27344a1,1,0,0,0-1,1V11a1.0004,1.0004,0,0,0,1,1H11.001a1.00076,1.00076,0,0,0,1-1V4.27246A1.00041,1.00041,0,0,0,11.001,3.27246ZM11.001,11H4.27344V4.27246H11.001Z"/>
  </g>
</svg>
