<svg width="64" height="63" viewBox="0 0 64 63" fill="none" xmlns="http://www.w3.org/2000/svg">
<path d="M38.0505 26.8818C37.5643 26.7856 37.06 26.8484 36.6122 27.0609C36.1644 27.2734 35.7968 27.6243 35.5639 28.0619C35.3309 28.4994 35.2449 29.0002 35.3186 29.4904C35.3923 29.9806 35.6218 30.434 35.9731 30.7837C36.3244 31.1334 36.7789 31.3608 37.2694 31.4322C37.7598 31.5037 38.2603 31.4154 38.6968 31.1804C39.1332 30.9455 39.4825 30.5763 39.6929 30.1275C39.9034 29.6788 39.9638 29.1742 39.8654 28.6884C39.7743 28.242 39.5536 27.8325 39.2307 27.5111C38.9079 27.1897 38.4973 26.9708 38.0505 26.8818Z" fill="white"/>
<path d="M38.0603 23.5637C36.8486 23.4644 35.6375 23.7617 34.6096 24.4109C33.5817 25.06 32.7927 26.0257 32.3616 27.1625C32.2116 27.5606 31.9576 27.9111 31.6259 28.1776C31.2942 28.444 30.8971 28.6165 30.476 28.6771C30.0549 28.7377 29.6253 28.6841 29.232 28.522C28.8386 28.36 28.496 28.0953 28.2399 27.7556C28.0353 27.4848 27.7735 27.2625 27.4732 27.1046C27.1728 26.9466 26.8414 26.8568 26.5023 26.8417C26.1951 26.8321 25.8889 26.8831 25.6013 26.9918C25.3138 27.1005 25.0505 27.2649 24.8264 27.4754C24.6024 27.686 24.4221 27.9386 24.2958 28.2189C24.1694 28.4991 24.0996 28.8016 24.0902 29.1089C24.082 29.6006 24.2311 30.082 24.5158 30.4831C24.8005 30.8841 25.2058 31.1837 25.6727 31.3382C26.1395 31.4928 26.6436 31.4941 27.1113 31.3421C27.579 31.1901 27.9859 30.8927 28.2727 30.4932C29.3433 29.0052 31.7343 29.4922 32.3687 31.1487C32.7266 32.0841 33.3286 32.9065 34.1122 33.5303C34.8957 34.1541 35.8322 34.5564 36.824 34.6954C37.8159 34.8344 38.8269 34.7049 39.7517 34.3205C40.6765 33.9361 41.4814 33.3108 42.0825 32.5097C42.6836 31.7086 43.059 30.761 43.1696 29.7656C43.2801 28.7701 43.1218 27.7633 42.7111 26.8498C42.3004 25.9364 41.6523 25.1497 40.8344 24.5718C40.0164 23.9938 39.0585 23.6457 38.0603 23.5637ZM38.221 32.752C37.4558 32.8834 36.6686 32.768 35.9734 32.4223C35.2782 32.0766 34.7111 31.5187 34.3541 30.8292C33.9971 30.1398 33.8687 29.3547 33.9876 28.5874C34.1065 27.8202 34.4665 27.1107 35.0154 26.5617C35.5643 26.0126 36.2737 25.6525 37.0409 25.5334C37.8081 25.4144 38.5933 25.5425 39.2828 25.8994C39.9723 26.2563 40.5304 26.8233 40.8762 27.5184C41.2221 28.2135 41.3377 29.0006 41.2065 29.7658C41.0783 30.511 40.7224 31.1982 40.1878 31.7329C39.6532 32.2676 38.9661 32.6236 38.2209 32.752H38.221Z" fill="white"/>
<path d="M30.3733 30.9851C30.1764 30.9289 29.9667 30.9358 29.774 31.0051C29.5812 31.0743 29.415 31.2023 29.2988 31.371C28.8333 31.9762 28.1898 32.4203 27.4588 32.6409C26.7279 32.8615 25.9461 32.8475 25.2235 32.6008C24.5009 32.3541 23.8738 31.8872 23.4303 31.2657C22.9868 30.6442 22.7491 29.8993 22.7509 29.1358C22.7526 28.3723 22.9935 27.6285 23.4398 27.0089C23.8861 26.3894 24.5153 25.9253 25.239 25.6819C25.9627 25.4384 26.7444 25.4279 27.4744 25.6517C28.2044 25.8756 28.8459 26.3226 29.3087 26.9298C29.3191 26.9441 29.3298 26.9583 29.3408 26.972H29.3409L29.3465 26.9791C29.503 27.1708 29.7269 27.2953 29.9723 27.3273C30.2177 27.3592 30.4661 27.296 30.6664 27.1507C30.8667 27.0054 31.0039 26.7889 31.0498 26.5457C31.0956 26.3025 31.0467 26.051 30.9131 25.8427C30.9055 25.8238 30.8954 25.8061 30.8832 25.7898C30.1797 24.8499 29.1986 24.1548 28.0785 23.8027C26.9585 23.4506 25.7561 23.4594 24.6413 23.8277C23.5265 24.196 22.5556 24.9053 21.8658 25.8554C21.176 26.8054 20.8021 27.9482 20.7969 29.1222C20.7918 30.2963 21.1557 31.4423 21.8372 32.3983C22.5187 33.3544 23.4833 34.0721 24.5949 34.4502C25.7064 34.8282 26.9086 34.8475 28.0317 34.5052C29.1548 34.163 30.1419 33.4765 30.8537 32.5428C30.9547 32.42 31.0244 32.2745 31.0567 32.1189C31.089 31.9632 31.0829 31.8021 31.0391 31.6493C30.9945 31.4907 30.9098 31.3463 30.7932 31.23C30.6766 31.1137 30.532 31.0294 30.3733 30.9851Z" fill="white"/>
<path d="M31.9993 0.477051C25.8636 0.47705 19.8657 2.2965 14.764 5.70532C9.66234 9.11414 5.68608 13.9592 3.33804 19.6279C0.990005 25.2965 0.375651 31.5342 1.57267 37.552C2.76969 43.5698 5.72431 49.0975 10.0629 53.4361C14.4015 57.7747 19.9292 60.7294 25.9471 61.9264C31.9649 63.1234 38.2025 62.5091 43.8712 60.161C49.5398 57.813 54.3849 53.8367 57.7937 48.7351C61.2026 43.6334 63.022 37.6355 63.022 31.4998C63.022 27.4258 62.2196 23.3917 60.6606 19.6279C59.1015 15.864 56.8164 12.4441 53.9357 9.56339C51.055 6.68267 47.635 4.39755 43.8712 2.83851C40.1073 1.27948 36.0733 0.47705 31.9993 0.477051V0.477051ZM31.9993 48.0024C28.7354 48.0024 25.5448 47.0346 22.8309 45.2212C20.1171 43.4079 18.0019 40.8305 16.7528 37.815C15.5038 34.7996 15.177 31.4814 15.8137 28.2802C16.4505 25.079 18.0222 22.1385 20.3302 19.8306C22.6381 17.5227 25.5786 15.9509 28.7798 15.3142C31.981 14.6774 35.2991 15.0042 38.3146 16.2533C41.3301 17.5023 43.9074 19.6175 45.7208 22.3314C47.5341 25.0452 48.502 28.2358 48.502 31.4998C48.502 33.6669 48.0751 35.8129 47.2458 37.8151C46.4164 39.8173 45.2009 41.6365 43.6685 43.1689C42.136 44.7013 40.3168 45.9169 38.3146 46.7462C36.3124 47.5756 34.1665 48.0024 31.9993 48.0024Z" fill="white"/>
<path d="M36.3349 35.989C36.1839 35.9776 36.0325 36.0024 35.8931 36.0614C35.7537 36.1203 35.6303 36.2116 35.5333 36.3277C35.0994 36.8557 34.4768 38.3434 32.1163 38.4804C32.0775 38.4826 32.0386 38.4813 31.9997 38.4825C31.9608 38.4813 31.922 38.4826 31.8831 38.4804C29.5227 38.3434 28.9001 36.8557 28.4662 36.3277C28.3691 36.2116 28.2458 36.1203 28.1064 36.0614C27.967 36.0024 27.8155 35.9776 27.6646 35.989C27.4263 35.9928 27.1989 36.0892 27.0304 36.2577C26.8619 36.4262 26.7655 36.6536 26.7617 36.8919C26.7617 37.4179 27.0835 37.861 27.6786 38.5148C28.2267 39.1157 28.8941 39.5956 29.6381 39.924C30.3821 40.2524 31.1865 40.422 31.9997 40.422C32.813 40.422 33.6173 40.2524 34.3614 39.924C35.1054 39.5956 35.7728 39.1157 36.3208 38.5148C36.9159 37.861 37.2378 37.4179 37.2378 36.8919C37.2339 36.6536 37.1376 36.4262 36.9691 36.2577C36.8006 36.0892 36.5731 35.9928 36.3349 35.989Z" fill="white"/>
</svg>
