<svg width="16" height="17" viewBox="0 0 16 17" fill="none" xmlns="http://www.w3.org/2000/svg">
<path d="M9 1.00018L9 0.000176362L7 0.000176498L7 1.00018L9 1.00018ZM9 12.3374L9 1.00018L7 1.00018L7 12.3374L9 12.3374Z" fill="#3A3A3A"/>
<path d="M3.56694 6.80609L2.86523 6.09362L1.46183 7.51855L2.16353 8.23102L3.56694 6.80609ZM7.2981 13.4444C7.68564 13.8378 8.31397 13.8378 8.70151 13.4444C9.08905 13.0509 9.08905 12.4129 8.70151 12.0194L7.2981 13.4444ZM2.16353 8.23102L7.2981 13.4444L8.70151 12.0194L3.56694 6.80609L2.16353 8.23102Z" fill="#3A3A3A"/>
<path d="M8 12.7324L13.1346 7.51909" stroke="#3A3A3A" stroke-width="2" stroke-linecap="square"/>
<path d="M1.27734 15.563H14.7239" stroke="#3A3A3A" stroke-width="2" stroke-linecap="square"/>
</svg>
