<svg width="36" height="36" viewBox="0 0 36 36" fill="none" xmlns="http://www.w3.org/2000/svg">
<path d="M5.8597 1.07755C5.91333 0.852315 6.11457 0.693359 6.3461 0.693359H30.5562C30.7878 0.693359 30.989 0.852315 31.0426 1.07755L35.8046 21.0775C35.8794 21.3917 35.6411 21.6934 35.3181 21.6934H1.5842C1.26123 21.6934 1.02299 21.3917 1.09779 21.0775L5.8597 1.07755Z"/>
<path fill-rule="evenodd" clip-rule="evenodd" d="M0.951172 25.6934C0.951172 24.5888 1.8466 23.6934 2.95117 23.6934H33.9512C35.0557 23.6934 35.9512 24.5888 35.9512 25.6934V33.6925C35.9512 34.797 35.0557 35.6925 33.9512 35.6925H2.95117C1.8466 35.6925 0.951172 34.797 0.951172 33.6925V25.6934ZM13.9512 28.9934C13.9512 28.8277 14.0855 28.6934 14.2512 28.6934H21.6512C21.8169 28.6934 21.9512 28.8277 21.9512 28.9934V30.3934C21.9512 30.559 21.8169 30.6934 21.6512 30.6934H14.2512C14.0855 30.6934 13.9512 30.559 13.9512 30.3934V28.9934ZM24.9512 30.6934C25.5035 30.6934 25.9512 30.2456 25.9512 29.6934C25.9512 29.1411 25.5035 28.6934 24.9512 28.6934C24.3989 28.6934 23.9512 29.1411 23.9512 29.6934C23.9512 30.2456 24.3989 30.6934 24.9512 30.6934Z"/>
</svg>
