<svg width="9" height="10" viewBox="0 0 9 10" fill="none" xmlns="http://www.w3.org/2000/svg">
<path d="M9 5C9 7.48528 6.98528 9.5 4.5 9.5C2.01472 9.5 0 7.48528 0 5C0 2.51472 2.01472 0.5 4.5 0.5C6.98528 0.5 9 2.51472 9 5ZM0.876062 5C0.876062 7.00145 2.49855 8.62394 4.5 8.62394C6.50145 8.62394 8.12394 7.00145 8.12394 5C8.12394 2.99855 6.50145 1.37606 4.5 1.37606C2.49855 1.37606 0.876062 2.99855 0.876062 5Z" fill="#80A0D4"/>
<path d="M4.49282 2.52177C3.91597 2.52681 3.3587 2.7317 2.91598 3.10155C2.47326 3.47139 2.17248 3.9833 2.06487 4.55005C1.95727 5.1168 2.04951 5.70333 2.32588 6.2097C2.60225 6.71607 3.04564 7.11094 3.58051 7.32704C4.11538 7.54315 4.70864 7.5671 5.25919 7.39483C5.80974 7.22256 6.28353 6.86473 6.59983 6.38229C6.91613 5.89986 7.05536 5.32268 6.99381 4.7491C6.93226 4.17551 6.67373 3.64102 6.26227 3.23668L4.51458 5.01514L4.49282 2.52177Z" fill="#80A0D4"/>
</svg>
