<svg width="17" height="20" viewBox="0 0 17 20" fill="none" xmlns="http://www.w3.org/2000/svg">
<path d="M16.418 3.58954L13.3684 0.354903C13.2626 0.242595 13.1348 0.153165 12.993 0.0921274C12.8512 0.0310894 12.6985 -0.000263537 12.5441 1.6685e-06L1.79615 0.0193077C1.49676 0.0198556 1.20982 0.139167 0.998303 0.351054C0.78679 0.562942 0.667987 0.850093 0.667969 1.14948V18.8698C0.667969 19.1696 0.78704 19.457 0.998989 19.669C1.21094 19.8809 1.4984 20 1.79814 20H15.5881C15.8877 20 16.1751 19.881 16.387 19.6692C16.599 19.4574 16.7181 19.17 16.7183 18.8704L16.7259 4.36536C16.726 4.07694 16.6158 3.79938 16.418 3.58954ZM8.70174 16.1567H2.45471V14.8896H8.70174V16.1567ZM15.2428 13.4414H2.45137V12.1743H15.2428V13.4414ZM15.2428 10.726H2.45137V9.45897H15.2428V10.726ZM15.2428 8.01069H2.45137V6.74367H15.2428V8.01069ZM15.1966 4.79304H12.1114C12.0984 4.79305 12.0855 4.79048 12.0734 4.78549C12.0614 4.7805 12.0504 4.77318 12.0412 4.76395C12.0319 4.75473 12.0246 4.74377 12.0196 4.73172C12.0146 4.71966 12.0121 4.70674 12.0121 4.69369V1.34399C12.0121 1.32399 12.0181 1.30445 12.0294 1.28793C12.0407 1.27141 12.0567 1.25868 12.0753 1.2514C12.094 1.24413 12.1143 1.24265 12.1338 1.24715C12.1533 1.25165 12.171 1.26194 12.1846 1.27665L15.2697 4.62632C15.2828 4.64052 15.2915 4.65822 15.2947 4.67726C15.2978 4.69631 15.2954 4.71586 15.2877 4.73355C15.2799 4.75123 15.2672 4.76627 15.251 4.77683C15.2348 4.78739 15.2159 4.79301 15.1966 4.793V4.79304Z" fill="#5F93F1"/>
</svg>
