<svg width="11" height="10" viewBox="0 0 11 10" fill="none" xmlns="http://www.w3.org/2000/svg">
<path d="M9.99951 3.44348C10.0105 4.01196 9.8363 4.56933 9.50166 5.03623C9.02525 5.74173 8.4592 6.3863 7.81684 6.95477C7.08348 7.67679 6.31011 8.35955 5.50016 9C4.69408 8.36202 3.92694 7.67912 3.20262 6.95477C2.56026 6.38629 1.9942 5.74172 1.51776 5.03623C1.16804 4.5756 0.986183 4.0153 1.00082 3.44348C1.0061 2.95067 1.16649 2.47118 1.46051 2.06919C1.7584 1.66243 2.17431 1.35077 2.65535 1.17382C3.14034 0.994656 3.6687 0.956605 4.17567 1.06433C4.68004 1.17067 5.1408 1.41905 5.50016 1.77833C5.74959 1.53339 6.04666 1.33888 6.37417 1.20608C6.70386 1.07225 7.05736 1.00227 7.41476 1.00007C7.75444 0.997581 8.09138 1.05908 8.40687 1.18116C8.7204 1.30231 9.00627 1.48212 9.24818 1.71034C9.48778 1.93642 9.67814 2.20684 9.80798 2.50558C9.93678 2.80237 10.0019 3.12148 9.99951 3.44348Z" stroke="#80A0D4" stroke-width="1.5" stroke-miterlimit="10"/>
</svg>
