<svg width="36" height="36" viewBox="0 0 36 36" fill="none" xmlns="http://www.w3.org/2000/svg">
<path d="M13.9512 24.6143C13.9512 23.5097 14.8466 22.6143 15.9512 22.6143H20.9512C22.0557 22.6143 22.9512 23.5097 22.9512 24.6143V35.5675H13.9512V24.6143Z"/>
<path fill-rule="evenodd" clip-rule="evenodd" d="M3.95117 9.12687V33.6931C3.95117 34.7977 4.8466 35.6931 5.95117 35.6931H30.9512C32.0557 35.6931 32.9512 34.7977 32.9512 33.6931V9.27827C31.9811 9.35199 30.9313 8.93178 29.9512 7.66797V32.6931H6.95117V8.05005C6.08858 8.68235 5.05493 9.19583 3.95117 9.12687Z"/>
<path d="M32.9512 0.693359H3.95117C2.90224 4.54754 0.951172 12.766 0.951172 12.766C3.68053 15.6779 6.53833 13.9846 8.14383 12.766C10.9053 15.2316 12.9122 14.7852 15.3365 12.766C18.2906 15.8055 20.7792 14.3176 22.4649 12.766C24.8892 16.1455 28.0521 14.2113 29.4649 12.766C31.8411 15.7417 34.7738 14.2964 35.9512 12.766L32.9512 0.693359Z" />
</svg>
