<svg width="31" height="36" viewBox="0 0 31 36" fill="none" xmlns="http://www.w3.org/2000/svg">
<g filter="url(#filter0_ii_844_2029)">
<path d="M14.6082 0.382745C17.273 0.634962 19.8456 1.48633 22.1325 2.87275C24.4194 4.25918 26.361 6.14454 27.811 8.38693C29.261 10.6293 30.1817 13.1703 30.5038 15.8186C30.826 18.4669 30.5411 21.1535 29.6707 23.6762C28.8003 26.199 27.367 28.492 25.4787 30.3829C23.5905 32.2737 21.2964 33.713 18.7693 34.5925C16.2421 35.4719 13.5477 35.7686 10.8889 35.4602C8.23005 35.1517 5.67605 34.2463 3.41914 32.8119C1.16222 31.3775 3.30195 29.8474 0.936419 24.798C-1.42911 19.7486 8.33794 25.125 8.33794 25.125C9.42824 25.818 10.6621 26.2554 11.9465 26.4044C13.231 26.5534 14.5326 26.4101 15.7535 25.9852C16.9743 25.5604 18.0825 24.865 18.9947 23.9516C19.907 23.0382 20.5994 21.9304 21.0198 20.7117C21.4403 19.493 21.578 18.1951 21.4223 16.9157C21.2667 15.6364 20.8219 14.4088 20.1214 13.3256C19.4209 12.2423 18.483 11.3315 17.3782 10.6617C16.2734 9.99193 14.4979 9.21234 12.3428 9.21234C12.3428 9.21234 7.81861 8.99242 8.33784 4.15364C8.85708 -0.68515 14.6082 0.382745 14.6082 0.382745Z"/>
</g>
<defs>
<filter id="filter0_ii_844_2029" x="-3.43262" y="-3.71729" width="34.0654" height="43.2959" filterUnits="userSpaceOnUse" color-interpolation-filters="sRGB">
<feFlood flood-opacity="0" result="BackgroundImageFix"/>
<feBlend mode="normal" in="SourceGraphic" in2="BackgroundImageFix" result="shape"/>
<feColorMatrix in="SourceAlpha" type="matrix" values="0 0 0 0 0 0 0 0 0 0 0 0 0 0 0 0 0 0 127 0" result="hardAlpha"/>
<feOffset dx="-4" dy="-4"/>
<feGaussianBlur stdDeviation="7"/>
<feComposite in2="hardAlpha" operator="arithmetic" k2="-1" k3="1"/>
<feColorMatrix type="matrix" values="0 0 0 0 1 0 0 0 0 1 0 0 0 0 1 0 0 0 0.5 0"/>
<feBlend mode="normal" in2="shape" result="effect1_innerShadow_844_2029"/>
<feColorMatrix in="SourceAlpha" type="matrix" values="0 0 0 0 0 0 0 0 0 0 0 0 0 0 0 0 0 0 127 0" result="hardAlpha"/>
<feOffset dy="4"/>
<feGaussianBlur stdDeviation="5"/>
<feComposite in2="hardAlpha" operator="arithmetic" k2="-1" k3="1"/>
<feColorMatrix type="matrix" values="0 0 0 0 0 0 0 0 0 0 0 0 0 0 0 0 0 0 0.05 0"/>
<feBlend mode="normal" in2="effect1_innerShadow_844_2029" result="effect2_innerShadow_844_2029"/>
</filter>
<linearGradient id="paint0_linear_844_2029" x1="12.0296" y1="0.98533" x2="3.35295" y2="33.0502" gradientUnits="userSpaceOnUse">
<stop/>
<stop offset="1"/>
</linearGradient>
</defs>
</svg>
