<svg id="Layer_1" data-name="Layer 1" xmlns="http://www.w3.org/2000/svg" viewBox="0 0 23.95843 23.92578">
  <path d="M23.39941,20.727l-3.58758-3.52222A10.64606,10.64606,0,0,0,18.26892,2.71191a11.13548,11.13548,0,0,0-14.84.24482A10.643,10.643,0,0,0,2.38281,17.49225a11.0276,11.0276,0,0,0,6.875,3.94354,11.14837,11.14837,0,0,0,7.78241-1.65234l3.66009,3.5935a1.93366,1.93366,0,0,0,2.6991,0,1.84973,1.84973,0,0,0,0-2.65Zm-5.34747-8.59912a7.0569,7.0569,0,0,1-2.49744,4.09088,7.33346,7.33346,0,0,1-7.3338,1.07043A7.18885,7.18885,0,0,1,5.88281,15.7525a6.98241,6.98241,0,0,1-.897-8.938,7.20054,7.20054,0,0,1,3.90179-2.8413,7.33493,7.33493,0,0,1,4.85205.23394A7.164,7.164,0,0,1,17.33911,7.41,6.965,6.965,0,0,1,18.05194,12.12787Z"/>
</svg>
