<svg width="22" height="22" viewBox="0 0 22 22" fill="none" xmlns="http://www.w3.org/2000/svg">
<g clip-path="url(#clip0_845_2007)">
<path d="M18.8166 8.86186L18.7649 8.86773C18.5931 8.24576 18.346 7.64711 18.0289 7.08509L18.0678 7.05416L19.3066 4.57156L18.4125 3.67752L17.5185 2.78349L15.0359 4.02228L15.005 4.06115C14.443 3.74412 13.8443 3.49696 13.2223 3.32516L13.2282 3.2735L12.3487 0.64209H9.81996L8.94048 3.27351L8.94635 3.32517C8.32437 3.49697 7.72572 3.74413 7.1637 4.06116L7.13278 4.02229L4.65021 2.78349L3.75617 3.67752L2.8621 4.57156L4.1009 7.05416L4.13976 7.08509C3.82274 7.64711 3.57558 8.24576 3.40377 8.86773L3.35211 8.86186L0.720703 9.74135V12.2701L3.35212 13.1496L3.40378 13.1437C3.57559 13.7657 3.82275 14.3643 4.13977 14.9264L4.10091 14.9573L2.8621 17.4399L3.75617 18.3339L4.65021 19.228L7.13278 17.9892L7.1637 17.9503C7.72572 18.2673 8.32437 18.5145 8.94635 18.6863L8.94048 18.7379L9.81996 21.3693H12.3487L13.2282 18.7379L13.2223 18.6863C13.8443 18.5145 14.443 18.2673 15.005 17.9503L15.0359 17.9892L17.5185 19.228L18.4125 18.3339L19.3066 17.4399L18.0678 14.9573L18.0289 14.9264C18.3459 14.3643 18.5931 13.7657 18.7649 13.1437L18.8165 13.1496L21.448 12.2701V9.74135L18.8166 8.86186ZM11.0843 15.4033C10.2146 15.4033 9.36437 15.1454 8.6412 14.6622C7.91803 14.1789 7.35439 13.4921 7.02155 12.6886C6.68871 11.8851 6.60163 11.0009 6.77131 10.1478C6.94099 9.29479 7.35981 8.51122 7.97482 7.89622C8.58982 7.28121 9.37339 6.86239 10.2264 6.69271C11.0795 6.52303 11.9637 6.61011 12.7672 6.94295C13.5707 7.27579 14.2575 7.83943 14.7408 8.5626C15.224 9.28577 15.4819 10.136 15.4819 11.0057C15.4819 12.172 15.0186 13.2906 14.1939 14.1153C13.3692 14.9399 12.2506 15.4033 11.0843 15.4033V15.4033Z" fill="#A8A8A8"/>
</g>
<defs>
<clipPath id="clip0_845_2007">
<rect width="20.7273" height="20.7273" fill="white" transform="translate(0.720703 0.64209)"/>
</clipPath>
</defs>
</svg>
