<svg width="15" height="15" viewBox="0 0 15 15" fill="none" xmlns="http://www.w3.org/2000/svg">
<path d="M12.4335 5.77925C12.091 4.88938 11.5199 4.10553 10.7779 3.50672C10.0358 2.9079 9.14901 2.51528 8.20686 2.36843C7.26471 2.22157 6.30049 2.32567 5.41139 2.67024C4.5223 3.0148 3.73974 3.58765 3.1426 4.33105C2.54546 5.07445 2.15484 5.96213 2.01011 6.90461C1.86538 7.84709 1.97166 8.81107 2.31823 9.69939C2.6648 10.5877 3.23941 11.369 3.98416 11.9644C4.7289 12.5599 5.61746 12.9485 6.56026 13.0911L6.87428 11.015C6.29643 10.9276 5.75183 10.6894 5.29537 10.3245C4.83892 9.95953 4.48673 9.48069 4.27432 8.93624C4.06191 8.39178 3.99677 7.80096 4.08547 7.22331C4.17418 6.64566 4.41359 6.1016 4.77958 5.64597C5.14557 5.19033 5.6252 4.83923 6.17013 4.62805C6.71506 4.41686 7.30603 4.35306 7.88348 4.44307C8.46093 4.53307 9.00445 4.77371 9.45925 5.14073C9.91406 5.50774 10.2641 5.98817 10.474 6.53357L12.4335 5.77925Z" fill="url(#paint0_angular_2280_5116)"/>
<path d="M12.4398 5.79658C12.1862 5.13094 11.804 4.52177 11.315 4.00386C10.8259 3.48595 10.2397 3.06943 9.58964 2.77808C8.93963 2.48674 8.2386 2.32628 7.52658 2.30586C6.81455 2.28544 6.10548 2.40547 5.43984 2.65908L6.18742 4.62118C6.5954 4.46574 7.02999 4.39217 7.46639 4.40469C7.90279 4.4172 8.33245 4.51555 8.73085 4.69411C9.12924 4.87268 9.48856 5.12797 9.7883 5.4454C10.088 5.76283 10.3223 6.13619 10.4777 6.54416L12.4398 5.79658Z" fill="#48AFE8"/>
<defs>
<radialGradient id="paint0_angular_2280_5116" cx="0" cy="0" r="1" gradientUnits="userSpaceOnUse" gradientTransform="translate(7.37147 7.72791) rotate(90) scale(5.4242)">
<stop stop-color="#ADACAC"/>
<stop offset="0.697917" stop-color="#D9D9D9" stop-opacity="1"/>
</radialGradient>
</defs>
</svg>
