<svg width="19" height="18" viewBox="0 0 19 18" fill="none" xmlns="http://www.w3.org/2000/svg">
<path d="M0.25 2C0.25 1.46957 0.460714 0.960859 0.835786 0.585786C1.21086 0.210714 1.71957 0 2.25 0L16.25 0C16.7804 0 17.2891 0.210714 17.6642 0.585786C18.0393 0.960859 18.25 1.46957 18.25 2V16C18.25 16.5304 18.0393 17.0391 17.6642 17.4142C17.2891 17.7893 16.7804 18 16.25 18H2.25C1.71957 18 1.21086 17.7893 0.835786 17.4142C0.460714 17.0391 0.25 16.5304 0.25 16V2Z" fill="white"/>
<path d="M1.254 0H16.9352C17.2839 0 17.6183 0.138524 17.8649 0.385099C18.1115 0.631674 18.25 0.966101 18.25 1.31481V16.6852C18.25 17.0339 18.1115 17.3683 17.8649 17.6149C17.6183 17.8615 17.2839 18 16.9352 18H1.56481C1.2161 18 0.881674 17.8615 0.635099 17.6149C0.388524 17.3683 0.25 17.0339 0.25 16.6852L0.25 1.004C0.25 0.737723 0.355778 0.482351 0.544065 0.294065C0.732351 0.105778 0.987723 0 1.254 0V0Z" fill="#48AFE8"/>
<path d="M14.523 6.273L13.25 5L8.522 9.727L5.523 6.727L4.25 8L7.25 11L8.523 12.273L14.523 6.273Z" fill="white"/>
</svg>
