<svg width="26" height="17" viewBox="0 0 26 17" fill="none" xmlns="http://www.w3.org/2000/svg">
<path d="M15.9565 8.89213L13.2326 5.35638C13.2053 5.32092 13.1702 5.29221 13.13 5.27246C13.0898 5.2527 13.0456 5.24243 13.0009 5.24243C12.9561 5.24243 12.9119 5.2527 12.8717 5.27246C12.8316 5.29221 12.7965 5.32092 12.7691 5.35638L10.0451 8.89213C10.0118 8.93543 9.99124 8.98719 9.98582 9.04156C9.9804 9.09593 9.99031 9.15074 10.0144 9.19976C10.0385 9.24879 10.0759 9.29009 10.1223 9.31897C10.1687 9.34786 10.2222 9.36318 10.2769 9.3632H11.5296V12.5962C11.5297 12.6745 11.5607 12.7495 11.6161 12.8049C11.6714 12.8602 11.7465 12.8913 11.8247 12.8913H14.1768C14.2551 12.8913 14.3301 12.8602 14.3855 12.8049C14.4408 12.7495 14.4719 12.6745 14.4719 12.5962V9.36326H15.7247C15.7794 9.36326 15.8329 9.34794 15.8793 9.31906C15.9257 9.29018 15.9631 9.24888 15.9872 9.19983C16.0113 9.15079 16.0213 9.09598 16.0158 9.04159C16.0104 8.98721 15.9899 8.93543 15.9565 8.89213Z"/>
<path d="M21.263 5.36275C21.1078 4.17356 20.6088 3.05553 19.8273 2.14585C19.0459 1.23616 18.0158 0.57439 16.8636 0.241725C15.7114 -0.0909395 14.4871 -0.0800256 13.341 0.273128C12.1949 0.626282 11.1768 1.30631 10.4117 2.22979C9.88344 1.99516 9.31826 1.85462 8.74164 1.81452L8.74235 1.80828L8.56526 1.78916L8.51336 1.78357H8.46099C7.80778 1.78355 7.16095 1.9122 6.55746 2.16217C5.95396 2.41214 5.40561 2.77853 4.94372 3.24043C4.48182 3.70232 4.11544 4.25068 3.86547 4.85418C3.61551 5.45767 3.48687 6.1045 3.48689 6.75772C3.48689 6.79116 3.49723 6.81794 3.49796 6.85102C2.85479 7.01743 2.25458 7.31931 1.73752 7.73646C1.22046 8.15361 0.798481 8.6764 0.499824 9.26984L0.499002 9.27162C0.13954 9.98539 -0.0307093 10.7795 0.00454664 11.5779C0.0398026 12.3763 0.279384 13.1523 0.700362 13.8316C1.12134 14.5109 1.70962 15.0708 2.40891 15.4577C3.10819 15.8446 3.89507 16.0455 4.69424 16.0413H11.6042L11.6094 16.0417L11.708 16.052L11.8155 16.0413H20.6297C21.9979 16.0446 23.3155 15.5243 24.3123 14.5872C25.3091 13.65 25.9096 12.3669 25.9906 11.0012C26.0716 9.63539 25.627 8.29037 24.7479 7.24195C23.8689 6.19353 22.622 5.52117 21.263 5.36275H21.263ZM20.6297 14.0912H11.7182L11.7114 14.092L11.7049 14.0913H4.81706L4.72851 14.0814L4.6659 14.0884C3.94388 14.0798 3.25424 13.7874 2.74605 13.2745C2.23786 12.7615 1.95194 12.0692 1.9501 11.3471C1.95943 10.6394 2.23964 9.96222 2.73309 9.45485C3.22653 8.94748 3.89567 8.64853 4.60282 8.61951L5.77969 8.57797L5.51941 7.42954C5.41377 6.98913 5.4094 6.53049 5.50663 6.08814C5.60386 5.64579 5.80016 5.23125 6.08075 4.87573C6.36134 4.52021 6.71891 4.23296 7.12656 4.03561C7.53421 3.83825 7.98131 3.73593 8.43422 3.73634L8.53384 3.74705L8.56501 3.75038L8.59657 3.7517C9.15055 3.76998 9.68846 3.94235 10.1499 4.24944L10.9805 4.81218L11.5192 3.96568C11.8123 3.50592 12.1905 3.10632 12.6334 2.78834C13.3565 2.26165 14.2277 1.97727 15.1223 1.97591C16.2533 1.97794 17.3377 2.42687 18.1391 3.22487C18.9406 4.02287 19.3942 5.10528 19.4011 6.23625L19.2969 7.38276L20.6521 7.25126C21.5577 7.25645 22.4243 7.6206 23.0617 8.26383C23.6992 8.90706 24.0555 9.77686 24.0525 10.6824C24.0496 11.588 23.6876 12.4555 23.0459 13.0945C22.4042 13.7335 21.5353 14.092 20.6297 14.0913L20.6297 14.0912Z" />
</svg>
