<svg id="Layer_1" data-name="Layer 1" xmlns="http://www.w3.org/2000/svg" viewBox="0 0 82.91356 82.91356">
  <defs>
    <style>
      .cls-3 {
        fill: #b7b7b7;
      }

      .cls-4 {
        fill: #fff;
      }
    </style>
  </defs>
  <g>
    <circle class="cls-3" cx="41.45678" cy="41.45678" r="41.45678"/>
    <path class="cls-4" d="M70.45676,67.94463l-.01368-.09765a9.64353,9.64353,0,0,0-3.36524-5.9746c-2.69531-2.374-6.55664-3.92286-10.97265-4.94629A65.365,65.365,0,0,0,41.75852,55.45H41.2927c-6.5918.00391-13.25586.812-18.55567,2.686a20.47863,20.47863,0,0,0-6.76464,3.73633A9.64358,9.64358,0,0,0,12.60715,67.847l-.01269.09765v.10059c0,.45062.00537,1.89709.01391,3.05023q1.45093,1.413,3.03516,2.68066c-.02832-2.26013-.04737-4.725-.04907-5.60589a6.65635,6.65635,0,0,1,2.36816-4.05274c2.07227-1.85156,5.52441-3.32519,9.65527-4.26757a62.44882,62.44882,0,0,1,13.67481-1.4004l.22851.001H41.531l.22754-.001c6.33691-.0039,12.74707.80469,17.55273,2.51368a17.59712,17.59712,0,0,1,5.77637,3.15429,6.65635,6.65635,0,0,1,2.36816,4.05274c-.00074.95508-.0232,3.31933-.05542,5.61157q1.58424-1.26735,3.03759-2.68164c.01149-1.09741.0188-2.52459.0188-3.05493Z"/>
    <path class="cls-4" d="M41.45718,15.66909A17.0824,17.0824,0,1,0,58.53909,32.752,17.0824,17.0824,0,0,0,41.45718,15.66909ZM51.6758,42.97073A14.45264,14.45264,0,1,1,55.90835,32.752,14.45264,14.45264,0,0,1,51.6758,42.97073Z"/>
  </g>
</svg>
