<svg id="Layer_1" data-name="Layer 1" xmlns="http://www.w3.org/2000/svg" viewBox="0 0 256 263">
  <defs>
    <style>
      .cls-1 {
        fill: #48afe8;
      }

      .cls-2 {
        fill: #fff;
        fill-opacity: 0.3;
      }
    </style>
  </defs>
  <g>
    <rect class="cls-1" width="256" height="263" rx="4"/>
    <g>
      <path class="cls-2" d="M184.00053,66.2559a117.999,117.999,0,1,0,45.156,8.98221,118.00018,118.00018,0,0,0-45.156-8.98221Zm0,180.77079a62.76826,62.76826,0,1,1,24.02048-4.7779,62.77109,62.77109,0,0,1-24.02048,4.7779Z"/>
      <g>
        <path class="cls-2" d="M207.01047,166.69066a8.8008,8.8008,0,1,0,4.48906,2.39394,8.78542,8.78542,0,0,0-4.48906-2.39394Z"/>
        <path class="cls-2" d="M207.05236,154.069a21.31885,21.31885,0,0,0-21.67518,13.68866,9.0391,9.0391,0,0,1-15.6778,2.25586,8.77593,8.77593,0,0,0-6.60939-3.47578,8.89953,8.89953,0,0,0-9.175,8.623,8.77941,8.77941,0,0,0,15.90913,5.26627c4.07208-5.66,13.16692-3.80726,15.58,2.49274A21.30967,21.30967,0,1,0,207.05236,154.069Zm.61152,34.9493a13.921,13.921,0,1,1,7.48076-3.87644,13.90987,13.90987,0,0,1-7.48076,3.87644Z"/>
        <path class="cls-2" d="M177.81361,182.29811a3.71885,3.71885,0,0,0-4.087,1.46715,13.89413,13.89413,0,1,1,.03691-16.89248c.0399.05454.0808.10826.1227.16045h0l.02095.02687a3.687,3.687,0,0,0,5.95948-4.32239.91167.91167,0,0,0-.11372-.20126,21.30847,21.30847,0,1,0-.11273,25.68622,3.72969,3.72969,0,0,0,.70529-3.39825,3.64822,3.64822,0,0,0-2.53184-2.52631Z"/>
        <path class="cls-2" d="M200.48936,201.3324a3.617,3.617,0,0,0-3.04958,1.28807c-1.65,2.00844-4.0182,7.66745-12.99633,8.18837-.14863.00814-.29627.00306-.44391.00814-.14764-.00508-.29528,0-.44392-.00814-8.97812-.52092-11.34635-6.17993-12.99633-8.18837a3.61656,3.61656,0,0,0-3.04857-1.28807,3.48982,3.48982,0,0,0-3.43474,3.43386c0,2.0013,1.224,3.68619,3.48761,6.17383a22.24669,22.24669,0,0,0,32.8719,0c2.26348-2.48764,3.4875-4.17253,3.4875-6.17383a3.48913,3.48913,0,0,0-3.43363-3.43386Z"/>
      </g>
    </g>
  </g>
</svg>
