<svg id="Layer_1" data-name="Layer 1" xmlns="http://www.w3.org/2000/svg" viewBox="0 0 76.99999 77">
  <defs>
    <style>
      .cls-10 {
        fill: #fff;
      }

      .cls-20 {
        fill: #80a0d4;
      }
    </style>
  </defs>
  <g>
    <path class="cls-10" d="M38.5,76A37.5,37.5,0,1,0,1,38.5,37.5,37.5,0,0,0,38.5,76Z"/>
    <path class="cls-20" d="M76,38.5H75A36.5,36.5,0,1,1,64.30949,12.69068,36.3814,36.3814,0,0,1,75,38.5h2A38.5,38.5,0,1,0,38.5,77,38.5003,38.5003,0,0,0,77,38.5Z"/>
    <path class="cls-20" d="M64.7303,62.4598l-.0123-.0884a8.723,8.723,0,0,0-3.0441-5.4043c-2.438-2.1475-5.9308-3.5485-9.9253-4.4742a59.12615,59.12615,0,0,0-12.9774-1.3352h-.4214a52.32277,52.32277,0,0,0-16.7846,2.4296,18.52236,18.52236,0,0,0-6.119,3.3797,8.723,8.723,0,0,0-3.0441,5.4045l-.0115.0883v.091c0,.4076.0049,1.716.0126,2.7591q1.3125,1.278,2.7455,2.4248c-.0256-2.0444-.0429-4.274-.0444-5.0709a6.021,6.021,0,0,1,2.1421-3.6659c1.8745-1.6748,4.9972-3.0078,8.7338-3.8603a56.49212,56.49212,0,0,1,12.3696-1.2667l.2067.0009h.0089l.2058-.0009a49.74825,49.74825,0,0,1,15.8774,2.2738,15.91856,15.91856,0,0,1,5.2251,2.8532,6.021,6.021,0,0,1,2.1421,3.6659c-.0006.864-.021,3.0026-.0501,5.076q1.433-1.1463,2.7477-2.4257c.0103-.9926.017-2.2836.017-2.7633Z"/>
    <path class="cls-20" d="M38.4993,15.1736A15.45307,15.45307,0,1,0,49.4251,19.7a15.45188,15.45188,0,0,0-10.9258-4.5264Zm9.2433,24.6959A13.02544,13.02544,0,1,1,50.5798,35.63,13.07319,13.07319,0,0,1,47.7426,39.8695Z"/>
  </g>
</svg>
