<svg xmlns="http://www.w3.org/2000/svg" viewBox="0 0 16.8733 20.01465">
  <defs>
    <style>
      .cls-1 {
        fill: #48afe8;
      }

      .cls-2 {
        fill: #fff;
      }
    </style>
  </defs>
  <g id="Layer_2" data-name="Layer 2">
    <g>
      <path class="cls-1" d="M15.76147,3.59216,12.70972.35517A1.13107,1.13107,0,0,0,11.88477,0L1.129.01929A1.13106,1.13106,0,0,0,0,1.15033V18.88361a1.131,1.131,0,0,0,1.131,1.131h13.8a1.131,1.131,0,0,0,1.131-1.13043l.00763-14.51563A1.13094,1.13094,0,0,0,15.76147,3.59216Z"/>
      <path class="cls-2" d="M14.53925,4.79651H11.45178a.09939.09939,0,0,1-.09942-.09943V1.345a.09945.09945,0,0,1,.1726-.06738L14.61237,4.6297A.09942.09942,0,0,1,14.53925,4.79651Z"/>
      <path class="cls-1" d="M15.275,7.4351H8.8014A1.5985,1.5985,0,0,0,7.20314,9.03337v2.92578a1.59848,1.59848,0,0,0,1.59826,1.5982H15.275a1.59849,1.59849,0,0,0,1.59826-1.5982V9.03337A1.59851,1.59851,0,0,0,15.275,7.4351Zm-.20179,1.8v2.52228H9.00318V9.23509Z"/>
      <rect class="cls-2" x="8.99655" y="9.23509" width="6.08334" height="2.52228"/>
    </g>
  </g>
</svg>
