<svg xmlns="http://www.w3.org/2000/svg" viewBox="0 0 16.06958 20.01465">
  <defs>
    <style>
      .cls-1 {
        fill: #48afe8;
      }

      .cls-2 {
        fill: #fff;
      }
    </style>
  </defs>
  <g id="Layer_2" data-name="Layer 2">
    <g>
      <path class="cls-1" d="M14.94061.01929l-2.988-.00537C11.9292.01251,11.90839-.00006,11.88477,0l-3.85.0069L4.18481,0c-.02362-.00006-.04443.01251-.06787.01392L1.129.01929A1.13106,1.13106,0,0,0,0,1.15033V18.88361a1.131,1.131,0,0,0,1.131,1.131H14.9386a1.131,1.131,0,0,0,1.131-1.131V1.15033A1.13106,1.13106,0,0,0,14.94061.01929Z"/>
      <path class="cls-2" d="M1.49469,2.09131v11.4408c0,.46063.84426.59454,1.09618.17387l1.45235-2.42519a.23978.23978,0,0,1,.36223,0l1.41239,2.35845a.23887.23887,0,0,0,.35367.00675l3.325-4.76344a.24087.24087,0,0,1,.34913,0l3.56338,5.10485c.27664.39632,1.08126.24981,1.08126-.19688V2.09131c0-.2357-.25651-.42678-.57294-.42678H2.06763C1.75121,1.66453,1.49469,1.85561,1.49469,2.09131Z"/>
      <path class="cls-2" d="M9.53324,10.19975,9.634,11.95939l.80585,1.4134-.90659-.05037-.90658.1511.35256,2.87085s.65476.10073.80585.10073a15.89027,15.89027,0,0,1,1.41024,1.96426l.60439-1.20878s.85622.65476.90658.50366,0-1.81317,0-1.81317l.35256,1.00732a3.84646,3.84646,0,0,0,.20147-1.25914C13.15957,15.38742,9.53324,10.19975,9.53324,10.19975Z"/>
      <path class="cls-2" d="M4.32934,12.73538s-.14276,1.09443,0,1.23718.38067.42826.38067.42826l-.52343.571-.52342.09516.2855,1.09444-.80892.23792L3.568,17.589l1.28477.52342L4.71,17.16069l1.04685.95168.99926.04758-.04759-1.09443-.80892-1.33235.02464-.50919Z"/>
    </g>
  </g>
</svg>
