<svg id="Layer_1" data-name="Layer 1" xmlns="http://www.w3.org/2000/svg" viewBox="0 0 16.06958 20.01465">
  <defs>
    <style>
      .cls-1 {
        fill: #48afe8;
      }
    </style>
  </defs>
  <path class="cls-1" d="M15.76147,3.59216,12.70972.35517A1.13107,1.13107,0,0,0,11.88477,0L1.129.01929A1.13106,1.13106,0,0,0,0,1.15033V18.88361a1.131,1.131,0,0,0,1.131,1.131h13.8a1.131,1.131,0,0,0,1.131-1.13043l.00763-14.51563A1.13094,1.13094,0,0,0,15.76147,3.59216ZM8.03961,16.16846H1.788v-1.268H8.03961Zm6.54584-2.71729H1.78467v-1.268H14.58545Zm0-2.71734H1.78467V9.46588H14.58545Zm0-2.71729H1.78467V6.7486H14.58545Zm-.0462-3.22H11.45178a.09939.09939,0,0,1-.09942-.09943V1.345a.09945.09945,0,0,1,.1726-.06738L14.61237,4.6297A.09942.09942,0,0,1,14.53925,4.79651Z"/>
</svg>
