<svg width="17" height="21" viewBox="0 0 17 21" fill="none" xmlns="http://www.w3.org/2000/svg">
<path d="M16.416 3.59149L13.3665 0.356856C13.2606 0.244548 13.1328 0.155119 12.9911 0.0940805C12.8493 0.0330426 12.6965 0.00168959 12.5422 0.00195479L1.79419 0.0212608C1.4948 0.0218087 1.20786 0.14112 0.99635 0.353007C0.784837 0.564895 0.666034 0.852046 0.666016 1.15144V18.8718C0.666016 19.1715 0.785087 19.459 0.997036 19.6709C1.20898 19.8829 1.49645 20.002 1.79619 20.002H15.5861C15.8858 20.002 16.1731 19.883 16.3851 19.6711C16.597 19.4593 16.7161 19.172 16.7163 18.8723L16.7239 4.36732C16.7241 4.07889 16.6139 3.80133 16.416 3.59149ZM8.69979 16.1586H2.45276V14.8915H8.69979V16.1586ZM15.2409 13.4433H2.44941V12.1762H15.2409V13.4433ZM15.2409 10.7279H2.44941V9.46093H15.2409V10.7279ZM15.2409 8.01265H2.44941V6.74562H15.2409V8.01265ZM15.1947 4.795H12.1095C12.0964 4.795 12.0835 4.79243 12.0715 4.78744C12.0594 4.78245 12.0484 4.77513 12.0392 4.76591C12.03 4.75668 12.0227 4.74573 12.0177 4.73367C12.0127 4.72162 12.0101 4.7087 12.0101 4.69565V1.34594C12.0101 1.32594 12.0162 1.3064 12.0274 1.28988C12.0387 1.27336 12.0547 1.26063 12.0734 1.25336C12.092 1.24608 12.1124 1.2446 12.1319 1.2491C12.1514 1.25361 12.1691 1.26389 12.1826 1.2786L15.2678 4.62828C15.2809 4.64247 15.2895 4.66018 15.2927 4.67922C15.2959 4.69826 15.2935 4.71782 15.2857 4.7355C15.2779 4.75318 15.2652 4.76822 15.249 4.77878C15.2329 4.78934 15.214 4.79496 15.1947 4.79496V4.795Z" fill="#5F93F1"/>
</svg>
